Coordinates
version=1
nRows=15
nColumns=26
inDegrees=yes

Units are S.I. units (second, meters, Newtons, ...)
Angles are in degrees.

endheader
time	pelvis_tilt	pelvis_list	pelvis_rotation	pelvis_tx	pelvis_ty	pelvis_tz	hip_flexion_r	hip_adduction_r	hip_rotation_r	knee_angle_r	knee_angle_r_beta	ankle_angle_r	subtalar_angle_r	mtp_angle_r	hip_flexion_l	hip_adduction_l	hip_rotation_l	knee_angle_l	knee_angle_l_beta	ankle_angle_l	subtalar_angle_l	mtp_angle_l	lumbar_extension	lumbar_bending	lumbar_rotation
      1.34000000	    -12.33288177	     -2.88599037	     -0.92085873	      0.92208811	      0.89718586	      0.36113440	     20.25059160	      7.00368651	     -0.73319531	     40.29904435	      0.70335101	     28.20322511	      0.00000000	      0.00000000	     34.17987599	    -10.64924134	      3.85760916	    116.41053073	      2.03174705	     11.51940741	      0.00000000	      0.00000000	     -3.02602542	      5.30283818	     -2.03669885
      1.34400000	    -12.47812012	     -2.58394184	     -0.97228320	      0.93808760	      0.89893527	      0.36104878	     18.85339895	      6.65467351	     -0.72722262	     39.32874417	      0.68641608	     28.12908057	      0.00000000	      0.00000000	     35.66030397	    -10.33502656	      3.35891580	    115.60536027	      2.01769417	     11.66233585	      0.00000000	      0.00000000	     -2.67968341	      4.84153933	     -1.21073976
      1.34800000	    -12.50822151	     -2.29452352	     -1.06945796	      0.95426159	      0.90107608	      0.36096768	     17.24374651	      6.36633095	     -0.46310011	     38.13373640	      0.66555926	     27.73889041	      0.00000000	      0.00000000	     36.86821549	    -10.04762015	      2.75340767	    114.60853378	      2.00029627	     11.92788299	      0.00000000	      0.00000000	     -2.43777720	      4.40227130	     -0.34135311
      1.35200000	    -12.50413241	     -1.93477365	     -1.16815879	      0.97050488	      0.90337564	      0.36102582	     15.62787343	      5.95174476	     -0.37587039	     36.95100960	      0.64491678	     27.17902098	      0.00000000	      0.00000000	     38.00679009	     -9.72248217	      2.12767441	    113.52167126	      1.98132694	     12.12752649	      0.00000000	      0.00000000	     -2.23374585	      3.85202998	      0.49619003
      1.35600000	    -12.69484195	     -1.51819644	     -1.21909001	      0.98683539	      0.90560706	      0.36096408	     14.27306795	      5.43117758	     -0.34848289	     35.87863556	      0.62620032	     26.65565909	      0.00000000	      0.00000000	     39.29821336	     -9.29587393	      1.46372037	    112.30955065	      1.96017144	     12.30960332	      0.00000000	      0.00000000	     -1.75063320	      3.25132324	      1.30460518
      1.36000000	    -12.86584460	     -1.07016631	     -1.22287202	      1.00332958	      0.90800978	      0.36077440	     12.89703345	      4.84418163	     -0.36245745	     34.76744301	      0.60680635	     25.91826272	      0.00000000	      0.00000000	     40.49479601	     -8.84416361	      0.76995892	    110.97247516	      1.93683507	     12.45607275	      0.00000000	      0.00000000	     -1.25375631	      2.60158044	      2.02390877
      1.36400000	    -13.01852784	     -0.60769093	     -1.27223344	      1.01994663	      0.91059872	      0.36080426	     11.49403930	      4.25879732	     -0.33998886	     33.59623056	      0.58636484	     24.89797890	      0.00000000	      0.00000000	     41.60079665	     -8.46228595	     -0.04959792	    109.48081728	      1.91080073	     12.62589378	      0.00000000	      0.00000000	     -0.76267472	      1.93563009	      2.80332927
      1.36800000	    -13.01151913	     -0.20131907	     -1.27485052	      1.03676788	      0.91361928	      0.36069233	      9.85378137	      3.69471827	     -0.40763115	     32.24618107	      0.56280203	     23.26805957	      0.00000000	      0.00000000	     42.42219021	     -8.12733503	     -0.82560299	    107.83250243	      1.88203221	     12.84403124	      0.00000000	      0.00000000	     -0.45010837	      1.33963526	      3.50324778
      1.37200000	    -13.13833541	      0.24609064	     -1.23097230	      1.05363398	      0.91657413	      0.36049721	      8.39621587	      3.09247637	     -0.50573823	     30.92076560	      0.53966917	     21.70992839	      0.00000000	      0.00000000	     43.35072363	     -7.67742057	     -1.55868331	    106.10040971	      1.85180149	     13.10203489	      0.00000000	      0.00000000	      0.05974431	      0.69719418	      4.14249995
      1.37600000	    -13.37590131	      0.76066467	     -1.16032732	      1.07067049	      0.91942789	      0.36023448	      7.12984946	      2.41842042	     -0.55363766	     29.75014472	      0.51923798	     20.38669637	      0.00000000	      0.00000000	     44.34181560	     -7.14252989	     -2.36629195	    104.28559138	      1.82012693	     13.33771969	      0.00000000	      0.00000000	      0.71148475	     -0.02804326	      4.73118169
      1.38000000	    -13.62256371	      1.25438635	     -1.05518142	      1.08766654	      0.92243961	      0.35991786	      5.84163894	      1.75896426	     -0.71487189	     28.43379310	      0.49626331	     18.62609188	      0.00000000	      0.00000000	     45.25850169	     -6.62262804	     -3.11241890	    102.34747067	      1.78630034	     13.54002019	      0.00000000	      0.00000000	      1.34263377	     -0.71324977	      5.27993875
      1.38400000	    -13.83365734	      1.79650321	     -0.91992096	      1.10484112	      0.92553803	      0.35943287	      4.56684949	      1.02333801	     -0.95432276	     27.18910364	      0.47453938	     16.80397021	      0.00000000	      0.00000000	     46.05611344	     -6.01130521	     -3.92513228	    100.28570608	      1.75031576	     13.75299133	      0.00000000	      0.00000000	      1.92546604	     -1.44268964	      5.78889138
      1.38800000	    -13.99011893	      2.36204417	     -0.73150528	      1.12215710	      0.92881505	      0.35876098	      3.16041753	      0.28438147	     -1.15143398	     25.77259532	      0.44981665	     14.42112153	      0.00000000	      0.00000000	     46.69741036	     -5.31331710	     -4.66038164	     98.10101100	      1.71218564	     13.89745254	      0.00000000	      0.00000000	      2.48475293	     -2.20749457	      6.25907449
      1.39200000	    -13.96501469	      2.69296348	     -0.49695875	      1.13924145	      0.93241101	      0.35803297	      1.70614492	     -0.25803607	     -1.67028543	     24.56360345	      0.42871576	     11.52816556	      0.00000000	      0.00000000	     47.13314355	     -4.77281002	     -5.18527014	     95.85720133	      1.67302377	     14.04771056	      0.00000000	      0.00000000	      2.73832998	     -2.69243086	      6.59329724
      1.39600000	    -14.32541100	      3.22195735	     -0.20325176	      1.15674924	      0.93540954	      0.35705906	      0.60407632	     -0.97348249	     -2.14664686	     23.25655139	      0.40590339	      8.97542350	      0.00000000	      0.00000000	     47.88189284	     -3.97151882	     -5.77114699	     93.53032802	      1.63241217	     14.11695447	      0.00000000	      0.00000000	      3.53518792	     -3.40569246	      6.93383947
